<svg xmlns="http://www.w3.org/2000/svg" width="2880" height="2880" viewBox="0 0 2880 2880"><defs><style>.cls-1{fill:#e12027;}.cls-2{fill:#2b2525;}</style></defs><title>Asset 2</title><g id="Layer_2" data-name="Layer 2"><g id="Layer_1-2" data-name="Layer 1"><g id="oYM22M.tif"><path class="cls-1" d="M0,1508V1386c1.18-7.36,3-14.69,3.42-22.09,2.39-47,7.27-93.62,14.22-140.11A1418.64,1418.64,0,0,1,77,978.61c145.88-431.53,491-771.12,925-910,82.32-26.35,166.33-45.49,252.1-56,41.62-5.1,83.59-7.35,125.4-11A80.4,80.4,0,0,0,1388,0h108c2.46.56,4.9,1.52,7.38,1.63a1485.17,1485.17,0,0,1,148.12,14c87.18,12.67,172.59,32.79,255.74,61.82q469.12,163.8,742.27,579.06c96,145.78,161.59,304.73,198.92,475.31a1362.52,1362.52,0,0,1,25,154.67c3.13,31.07,4.43,62.33,6.55,93.5v146c-.64,2-1.68,4-1.85,6-2.26,26.87-3.57,53.86-6.71,80.63A1384.29,1384.29,0,0,1,2830,1824.09q-105,376.14-384.65,648.83Q2172.08,2738.75,1802.47,2835a1318.46,1318.46,0,0,1-188.29,35.2c-27.47,3-55,5.16-82.56,7.8-1.26.13-2.42,1.32-3.62,2H1356c-1.9-.72-3.76-1.94-5.7-2.08-41.87-2.94-83.57-7.25-125.1-13.48a1407.81,1407.81,0,0,1-246-59.67q-331.36-113.05-574.52-365Q150.06,2175.6,52.32,1821.54A1378.9,1378.9,0,0,1,5.6,1549.4c-.83-12-1.41-23.93-2.38-35.88C3.05,1511.5,4.37,1507.87,0,1508Zm2158.58,221.72c4.9-1.36,9.38-2.59,13.85-3.84,72.88-20.4,144.33-44.7,212.48-77.93,45.67-22.27,89.16-48,127.16-82.17,23.23-20.87,43.4-44.26,57-72.64,20.28-42.17,20.86-84.67,1.36-127.3-10.66-23.32-26-43.35-43.85-61.54-32.3-32.92-70.24-58.13-110.48-80-64.6-35.18-133.11-60.79-203.29-82.2-18.11-5.53-36.34-10.64-54.34-15.88-8.35-17.85-16.51-35.3-24.35-52.08l50.69-121.62c25.62-2.12,45.28-14.24,53.9-39.72,9.19-27.17,0-49.57-21.76-67.44.64-3.23,1.13-6.16,1.81-9,8.81-37.7,14.93-75.77,16-114.56.86-31.81-1.37-63.28-11-93.83-16.3-51.87-49-87.87-102-103.38-34.26-10-69.16-9-104-3.55-40.35,6.31-78.9,18.91-116.56,34.39-65.87,27.08-127.32,62.33-186.76,101.25-14.75,9.66-29.28,19.66-43.84,29.46q-228.87-67.84-457.11.81c-3-2-5.73-3.75-8.45-5.62-39.56-27.17-80.08-52.8-122.17-75.9-54.42-29.87-110.46-56-170.6-72.32-41.79-11.37-84.13-17.59-127.45-11.07-36.82,5.54-68.53,21-93.13,49.63a38.39,38.39,0,0,0-2.88,4.2c-35.83-8.15-64.11,5.22-75.17,34.44-11.51,30.41,1.42,58,36.17,76.68,0,2.1.09,4.41,0,6.71-2,45.26,3.76,89.71,13.48,133.8C677.51,892,699.43,954.06,725,1014.9c8.63,20.52,17.86,40.8,26.76,61.07l-23.35,50.15c-2.15.67-4.33,1.43-6.56,2-76.82,21.18-152.12,46.55-223.74,81.89-43.16,21.29-84.27,45.84-120.56,77.79-22.66,20-42.49,42.31-56.81,69.14-11.3,21.16-18,43.66-18.53,67.77-.72,30.57,8.4,58.4,24.17,84.25,14.91,24.44,34.31,45,56,63.43,31.9,27.13,67.28,49,104.51,67.88,16,8.13,32.23,15.77,48.23,23.56,5,50.22,61,73.87,100.61,38.52l92.75,27.79c8.18,17.5,16.34,35,24.64,52.72-1.42,3.19-2.89,6.52-4.39,9.83-28.41,62.49-53.6,126.2-71.88,192.46-14,50.85-24.21,102.38-25,155.39-.48,32.86,2.75,65.24,14.14,96.32,19.26,52.55,55.84,85.65,110.92,97.55,34.82,7.52,69.58,5.14,104.19-1.41,45.74-8.66,89.1-24.64,131.33-43.82,68.15-30.95,131.8-69.72,193.3-112.16,3.54-2.44,7.09-4.84,10.34-7.06q229.44,67.92,457.24-.76c3.15,2.07,5.94,3.85,8.66,5.72,42,28.89,85.14,56,130.06,80.21,54.07,29.11,109.75,54.39,169.48,69.73,40,10.28,80.52,15.65,121.69,9,53.92-8.65,93.19-37.28,115.69-87.63,13.12-29.38,17.74-60.6,18.65-92.42,1.06-36.8-3.52-73.13-10.64-109.16-2.69-13.64-5.83-27.2-8.7-40.47,21.29-20.33,28.33-39.91,21.75-62.84-8-27.72-28.06-40.84-54.67-43.66l-49.93-118.28C2143.06,1763,2150.65,1746.75,2158.58,1729.72Z"/><path class="cls-1" d="M2144.8,1912.59c-1.25,1.53-2.45,3.1-3.75,4.58-29.81,34.07-14,84.94,29.87,96.09,2.24.57,4.54.94,6.81,1.41,1.08,4.87,2.12,9.74,3.26,14.6,9.87,41.95,16.66,84.29,14.82,127.57-1,24.41-5.07,48.29-15.12,70.87-14.5,32.58-39,53.39-73.49,62.2-28.28,7.23-56.83,5.87-85.28,1.1-38.3-6.42-74.77-19-110.39-34.11-64.31-27.37-124.08-62.89-182.14-101.48a34.42,34.42,0,0,1-4.27-4c3-1.34,6-2.77,9.08-4A779,779,0,0,0,1941.09,2023c3.79-3.17,7.48-6.44,11.17-9.62-1.28-3.23-2.21-5.71-3.23-8.15a575.08,575.08,0,0,0-65.62-116.07,717,717,0,0,0-97.34-109.39l-28.73-25.84-62.93-50.66c-7-6.42-14.36-12.26-23.88-17-1,14.38-.63,27.45,2.85,40.34q3.33,17.13,6.67,34.24.6,14.23,1.21,28.47c-1.91,6.42.35,14.31-6.45,19.47-1.18-6.65-2.26-12.76-3.35-18.88q-3.78-13.51-7.55-27-3-8.55-6.05-17.09-2.65-7.17-5.3-14.34l-2.43.22-9.9,32c-1.52,4.38-2.92,8.81-4.57,13.14-5.33,13.94-10.38,28-16.28,41.7-3.39,7.89-7.87,15.49-17.29,17.12a71.16,71.16,0,0,0-6.29,42.15c-6.59-6.24-8.09-13.47-7.86-20.71.4-12.52,1.77-25,2.73-37.52,6.62-19.23,16.55-37.45,18.82-58l-2.1-1.12-21.87,32-2.21-1q2.87-12.54,5.72-25.08l2.78-6.41c6.64-15.37,14-30,28.93-39.58,5.47-3.53,9.9-8.88,14.27-13.87,8.33-9.52,15.06-20.07,19.13-32.71l-25.47-17.35c-57.21,4.84-113-.85-168.24-16,2,14.27.21,22.5-7,31.43a67.52,67.52,0,0,1-9.75,10c-16.23,13.25-32.46,26.49-49,39.34-13,10.09-24.76,21.26-33.8,35-2.32,3.54-3.71,7.69-5.53,11.56-2.1,9.79.94,19.09,2.67,28.52l5,50,1.26,22-2,.42q-7.48-20.09-15-40.18l-1.41-2.7.14.39c-1.7-8.52-4.69-16.56-8.91-26.34l-6.25,12.12q-7.19,13.68-14.38,27.37c-6.84,19-13.69,38-20.61,57.22l-10.6,4.22c-1.73,11.27-3.58,23.29-5.68,37-5.95-13.6-6.59-26.22-5.82-39.23,1.28-21.32,9.51-40.56,17-60.06,1.29-3.37,2.28-6.86,3.41-10.29l1.47-2.23-.76-.54-2,1.66c-9.91,7.56-14.41,18.64-19.74,31.83-2.62-10.36-2.33-18.76-.13-26.76,2.7-9.82,6.67-19.29,10.08-28.92a168.84,168.84,0,0,1,28.82-27.91c3.07-2.29,5.47-5.48,8.18-8.25,4.76-4.11,9.91-7.86,14.22-12.39,23.86-25.1,47.28-50.61,71.39-75.45,6.48-6.68,8.07-13.52,5.73-21.72-1.55-5.41-4-10.56-6-15.86-3.19-8.69-6.29-17.41-10-27.63-18.7-9.21-34.77-24.79-51.52-39.48-4.75-4.17-9.31-8.56-13.9-12.92-57.31-54.33-99.86-118.22-125.24-193.26-16.29-48.13-25.58-97.74-31.49-148.07q-1.92-19.8-3.85-39.59c-1-17.12-1.91-34.23-2.71-48.52L1141.25,1100q-5.77-13.56-11.53-27.13c-1.36-10.47-2.73-20.95-4.21-32.33-12.74-5.91-26-12-39.23-18.21-13.44-6.25-27.22-11.89-40.3-21.55,6.59-6.15,12.13-11.87,18.24-16.91,14.71-12.12,31.2-21.44,48.16-30.05a295.35,295.35,0,0,0,28.45-16.3c19.81-13,40.29-24.67,62.75-32.48,32.48-11.28,65.08-12.78,97.74-.77,18.93,7,35.91,17.38,51.61,29.89,8.32,6.63,16.28,13.71,24.41,20.58l19.87,20.19q34,40.25,68.11,80.45a30.62,30.62,0,0,0,4.52,3.66c6.58,13,15.71,23.43,29.46,29.2a38.88,38.88,0,0,0,3.67,3.26c59.92,41.19,110.09,92.22,152.68,150.94,41.6,57.37,74.91,119.47,104.15,183.8,14.72,32.39,28.4,65.24,42.55,97.89l12.42,30.74q22.27,57,44.58,114a21.61,21.61,0,0,0,3.48,5.94q26.19,30.69,52.51,61.26l20.29,25.59,68.13,83.6c-4.93.39-9.09,1.1-13.2,1s-8.13-1.19-12.2-1.84c20,27.2,39.79,54,59.9,81.37,3-3.55,6.17-7.31,9.29-11.15,22.51-27.64,42.42-57.11,61.35-87.28Q2126.85,1869.94,2144.8,1912.59Zm-149.62,19.5-1.21.74c4,9.25,8,18.5,12.38,28.73L2016,1951Z"/><path class="cls-1" d="M2177.94,1679.54c5.43-18.82,11.22-37.55,16.22-56.49a759.12,759.12,0,0,0,24.43-172.54,777.73,777.73,0,0,0-38.91-267.26c-.72-2.19-1.15-4.47-1.72-6.71,72.67,20.1,143.43,45.24,210.44,80.16,32,16.67,62.47,35.68,89.83,59.34,21.6,18.67,40.59,39.5,52.8,65.71,14.54,31.2,14.79,62.57-.66,93.39a191.73,191.73,0,0,1-20.24,32c-21.39,27.37-48.52,48.41-77.7,66.75C2353.58,1623.41,2267,1654.54,2177.94,1679.54Z"/><path class="cls-1" d="M779.5,1829.93c16.49,23.82,32,48.42,49.64,71.31q129.75,167.84,326.72,247.3c3.07,1.24,6.06,2.71,9.09,4.08-1.83,1.44-3.57,3-5.5,4.3-41.79,28.06-84.6,54.43-129.49,77.32-45.21,23-91.62,43-141.24,54.67-32.34,7.59-65,11.44-98,5.17-37.21-7-64.47-27.29-80.77-61.79-9.68-20.49-14.16-42.32-15.66-64.68-2.3-34.06.54-67.87,6.68-101.44,10.34-56.55,27.34-111.16,48.25-164.58C758.66,1877.45,769.36,1853.8,779.5,1829.93Z"/><path class="cls-1" d="M691.89,684.43c1.1-.74,2.17-1.53,3.31-2.21,27.8-16.42,37.69-44.51,26.24-74.54-.46-1.22-.77-2.51-1.15-3.76A108.86,108.86,0,0,1,777,566.81c13.23-3.68,26.73-5.13,40.45-5.4,40.23-.8,78.53,8.74,116.14,21.68,56,19.26,108.36,46.09,158.89,76.59,23.63,14.26,46.52,29.77,69.74,44.71-2.36,1.16-4.66,2.46-7.08,3.45q-219,89.05-353,283.88c-8.29,12-16.15,24.35-24.21,36.53a26.51,26.51,0,0,1-2.11-3.32c-25.31-56.51-47.62-114.14-63.79-174-10.25-37.93-18.6-76.27-20.24-115.67C691.1,718.34,691.81,701.37,691.89,684.43Z"/><path class="cls-1" d="M2176.21,835.67c-1.59.48-3.15,1.06-4.77,1.42-44.12,9.87-61,63.75-29.38,97.25a38.44,38.44,0,0,1,2.42,3.1c-1.45,3.69-2.84,7.4-4.37,11q-16.24,38.84-32.53,77.64c-5.85-8.86-11.63-17.76-17.55-26.56q-135.3-201.15-359.9-292.37c-2.77-1.11-5.46-2.43-8.18-3.65a59.69,59.69,0,0,1,5.45-4.26c33.42-20.68,66.36-42.19,100.43-61.72,46.61-26.71,95.33-49,147.05-64.25,33.43-9.85,67.32-15.9,102.4-13.73,54.68,3.39,91.43,32.14,107.32,84.68,10.82,35.76,11.17,72.39,6.38,108.92C2187.34,780.85,2181.22,808.19,2176.21,835.67Z"/><path class="cls-1" d="M652.53,1663c-.77-5.22-1.15-10.53-2.36-15.65-10.25-43.15-63.61-59.16-96-28.88-1.92,1.79-3.89,3.52-5.84,5.27-2.68-1.31-5.33-2.69-8-3.93-40.37-18.44-79.43-39.18-114.85-66.16-24-18.27-45.81-38.7-61.68-64.71-11.1-18.2-18.06-37.61-18.38-59.31-.43-28.75,10.56-53.17,27.24-75.55,21.42-28.72,48.93-50.8,78.83-69.88,79.66-50.86,167.5-82.37,257.85-107.75-10.4,32.31-19.71,64.91-26.28,98.25a787.49,787.49,0,0,0-13.68,199.72,776.16,776.16,0,0,0,38.58,200.32c.53,1.57.88,3.21,1.32,4.81Z"/><path class="cls-2" d="M1162.19,704.39c-23.22-14.94-46.11-30.45-69.74-44.71-50.53-30.5-102.92-57.33-158.89-76.59-37.61-12.94-75.91-22.48-116.14-21.68-13.72.27-27.22,1.72-40.45,5.4a108.86,108.86,0,0,0-56.68,37.11l-18.2-22c1-1.29,2.52-3.42,4.28-5.27C730.88,550.73,761.65,538,796.48,534c45.28-5.14,88.84,3.71,131.7,17.13,55.83,17.48,108.07,43,158.72,72,84.68,48.38,163.21,105.57,238.59,167.22q101.43,83,194,175.69c174.65,173.81,329.85,363.4,462.85,570.94,65.27,101.85,123.71,207.41,170.69,319.06,5.54,13.18,10.68,26.52,16,39.8.36.91.55,1.9.79,2.73l-25,14-35.9-85.32c-1.22-3.09-2.23-6.28-3.67-9.26q-17.85-36.79-35.85-73.52c-1.13-2.32-2.58-4.49-4-6.9-2.36.3-4.33.45-6.26.82-24.16,4.66-48.31,9.44-72.49,14-17,3.21-34,6.14-51,9.2L1915.35,1736a32.5,32.5,0,0,1,4.72-1.54c28.51-4.84,57.07-9.49,85.56-14.49,14.93-2.62,29.76-5.81,46.07-9-48.47-90.11-102.08-175.37-160.22-258.8-6.11,8.45-11.25,15.81-16.64,23q-30,39.9-60.07,79.69l-12.42-30.74c1.72-2,3.57-3.91,5.13-6q30.46-41.41,60.83-82.88c1.92-2.62,3.66-5.38,5.54-8.17a3450.9,3450.9,0,0,0-273.72-336.44c-18.69-.7-36.31-1.53-53.93-2-15.63-.37-31.27-.29-46.9-.41-13.75-5.77-22.88-16.2-29.46-29.2l102.06,1.4c-42.87-45.24-85.23-87.72-129.47-129.09-15.53,15-30.38,29.28-45.22,43.58l-19.87-20.19,44.74-43.77a81,81,0,0,1-6.95-5.07c-61.74-56.49-125.7-110.29-193.18-159.8C1202.37,731.7,1182.13,718.26,1162.19,704.39Z"/><path class="cls-2" d="M779.5,1829.93c-10.14,23.87-20.84,47.52-30.29,71.66-20.91,53.42-37.91,108-48.25,164.58-6.14,33.57-9,67.38-6.68,101.44,1.5,22.36,6,44.19,15.66,64.68,16.3,34.5,43.56,54.74,80.77,61.79,33.06,6.27,65.67,2.42,98-5.17,49.62-11.64,96-31.63,141.24-54.67,44.89-22.89,87.7-49.26,129.49-77.32,1.93-1.29,3.67-2.86,5.5-4.3,19.35-13.54,39-26.68,58-40.7,60.92-44.93,118.91-93.47,175-144.23,4.42-4,8.86-8,14-12.67l20.75,19c-1.92,2-3.18,3.49-4.6,4.79-91,83-186.3,160.42-290.44,226.48-58,36.8-118.09,69.62-182.75,93.43-36.68,13.51-74.19,23.5-113.33,26.48-28.57,2.17-56.57-.34-83.49-10.76-42.52-16.44-68.47-48.08-82.24-90.59-10.62-32.81-12.34-66.62-10.45-100.77,3.26-58.95,17.26-115.73,35.4-171.59,27.1-83.45,63.41-163,104.12-240.53,47.24-90,100.54-176.38,157.89-260.28,1.64-2.4,3.53-4.64,5.83-7.64l17.33,24.3c-53.55,78.61-103.55,159.1-148.86,243.87,127.89,26.77,256.21,42.09,386.24,50.84,8.34,9.13,17,18.6,25.65,28.08-143.55-6.23-285.28-23-426.14-52.61-11.25,23.21-22.35,45.87-33.21,68.63C786,1814,782.9,1822,779.5,1829.93Z"/><path class="cls-2" d="M691.89,684.43c-.08,16.94-.79,33.91-.09,50.83,1.64,39.4,10,77.74,20.24,115.67,16.17,59.86,38.48,117.49,63.79,174a26.51,26.51,0,0,0,2.11,3.32q21,45.06,41.92,90.11c3.64-.32,5.94-.31,8.16-.74,21.52-4.2,42.93-9.1,64.56-12.6,45.61-7.39,91.26-14.57,137-20.87,33.27-4.58,66.74-7.59,100.12-11.31l11.52,27.13c-4,.6-7.88,1.33-11.84,1.76-33.1,3.62-66.31,6.38-99.26,11-46.47,6.45-92.78,14-139.09,21.54-18.26,3-36.33,7-55.85,10.89,48.33,90,102,175.12,160,258.58,2.19-2.83,4-5.09,5.75-7.47q60.57-84.46,126.14-165.11c13.88-17,28.26-33.63,42.41-50.43q1.92,19.8,3.85,39.59c-1.35,1.47-2.78,2.87-4,4.4q-79.62,96.19-152,198c-1.48,2.09-2.69,4.37-4.09,6.68a3457.47,3457.47,0,0,0,273.36,336l33.51,1.68c-2.71,2.77-5.11,6-8.18,8.25a168.84,168.84,0,0,0-28.82,27.91c-29.49-32.58-59.54-64.68-88.39-97.83-107.69-123.76-206.57-254.19-294.46-392.8-60.81-95.92-115.93-194.93-160.85-299.4C713.76,953.54,691.69,892.67,677,829.3c-9.47-41-15.58-82.39-14.86-124.59.08-4.92.59-9.83.88-14.3Z"/><path class="cls-2" d="M1725.12,2151.39a34.42,34.42,0,0,0,4.27,4c58.06,38.59,117.83,74.11,182.14,101.48,35.62,15.16,72.09,27.69,110.39,34.11,28.45,4.77,57,6.13,85.28-1.1,34.47-8.81,59-29.62,73.49-62.2,10-22.58,14.08-46.46,15.12-70.87,1.84-43.28-4.95-85.62-14.82-127.57-1.14-4.86-2.18-9.73-3.26-14.6l28.55-2.67c2.28,9.75,4.91,20,7,30.33,8.4,40.91,13.36,82.17,10.56,124-1.82,27.08-7.21,53.38-19.29,78-20.71,42.18-54.76,66.73-100.47,75.68-36.7,7.19-73,3.1-108.91-5.12-56.18-12.85-108.51-35.69-159.32-62.28C1758.35,2212,1686.31,2163,1617,2109.85c-104.6-80.26-201.39-169.24-293.26-263.68-2.32-2.38-4.82-4.57-7.24-6.84q7.18-13.69,14.38-27.37l15.16,14.22-.14-.39,1.41,2.7q7.48,20.1,15,40.18l2-.42-1.26-22c2.46,2.22,5,4.35,7.38,6.67,16.18,15.85,32.27,31.79,48.49,47.6,8.3,8.09,16.82,16,25.46,24.14,44.25-41.74,86.56-84.17,128.55-129.26-37.41.71-72.68,1.81-108,1.94-35.63.14-71.27-.69-106.9-1.09-1.73-9.43-4.77-18.73-2.67-28.52q102.89,2.52,205.74-.81c9.31-.3,18.62-.4,27.93-.59q-2.87,12.54-5.72,25.08l2.21,1,21.87-32,2.1,1.12c-2.27,20.57-12.2,38.79-18.82,58-2.46,2.22-5,4.33-7.35,6.66q-56.11,56.23-112.15,112.53c-1.83,1.84-3.49,3.84-5.2,5.73,1,1.17,1.61,2,2.34,2.66,78.51,71.75,160.25,139.48,248.16,199.55A96.16,96.16,0,0,0,1725.12,2151.39Z"/><path class="cls-2" d="M2177.94,1679.54c89.08-25,175.64-56.13,254.49-105.69,29.18-18.34,56.31-39.38,77.7-66.75a191.73,191.73,0,0,0,20.24-32c15.45-30.82,15.2-62.19.66-93.39-12.21-26.21-31.2-47-52.8-65.71-27.36-23.66-57.85-42.67-89.83-59.34-67-34.92-137.77-60.06-210.44-80.16q-38.57-10.21-77.13-20.46c-2.17-.58-4.3-1.3-7.1-2.16l13.32-25.85c20.95,5.39,41.57,10.44,62,16,72.34,19.66,143.19,43.52,210.82,76.19,39.67,19.16,77.61,41.22,111.65,69.47,20.62,17.1,39.21,36.11,53.8,58.75,17.43,27,26.85,56.33,24.64,88.83-1.53,22.35-8.66,42.92-19.76,62.22-15.35,26.67-36.24,48.49-59.85,67.82-40,32.75-84.89,57.3-131.78,78.4-73.34,33-149.79,56.79-227.68,76.23-7.06,1.76-14.17,3.37-21.95,5.22l-13.15-25.29Z"/><path class="cls-2" d="M2176.21,835.67c5-27.48,11.13-54.82,14.77-82.48,4.79-36.53,4.44-73.16-6.38-108.92-15.89-52.54-52.64-81.29-107.32-84.68-35.08-2.17-69,3.88-102.4,13.73-51.72,15.25-100.44,37.54-147.05,64.25-34.07,19.53-67,41-100.43,61.72a59.69,59.69,0,0,0-5.45,4.26c-15.6,10.76-31.43,21.19-46.75,32.34-66.33,48.25-129.23,100.7-189.93,155.82-3.2,2.9-6.44,5.76-10.43,9.33l-20.79-19c1.57-1.7,2.56-2.94,3.72-4,78.53-71.74,160.47-139.25,248.49-199.14,63.67-43.32,129.69-82.49,201-112,38.22-15.83,77.43-28.36,118.58-34,27.26-3.76,54.46-4.19,81.42,2.17,54.64,12.87,88.46,47.63,104.69,100.5,7.58,24.7,10.1,50.14,10.09,75.92,0,42.86-7.2,84.71-17.22,127.16-5.15-.9-9.89-2-14.68-2.48C2185.55,835.67,2180.86,835.8,2176.21,835.67Z"/><path class="cls-2" d="M2107.58,1026.13q16.27-38.82,32.53-77.64c1.53-3.65,2.92-7.36,4.37-11l24.93,14.44c-2.71,7.1-5.67,15.07-8.8,23-39.1,99-87.81,193.16-142.94,284-29.86,49.2-61.93,97.07-93,145.51-1.75,2.72-3.79,5.25-6.43,8.89-6-8.54-11.55-16.31-17.36-24.51,53.44-78.64,103.54-159,148.77-243.9-128.34-26.86-256.95-42.15-386.32-50.85-8.67-9.59-17.06-18.86-27.17-30.06,145,8.25,286.44,24.87,426.54,54.37a17.2,17.2,0,0,0,2.53-3q20.45-42.18,40.77-84.44A40.2,40.2,0,0,0,2107.58,1026.13Z"/><path class="cls-2" d="M709.28,1176.46c-90.35,25.38-178.19,56.89-257.85,107.75-29.9,19.08-57.41,41.16-78.83,69.88-16.68,22.38-27.67,46.8-27.24,75.55.32,21.7,7.28,41.11,18.38,59.31,15.87,26,37.69,46.44,61.68,64.71,35.42,27,74.48,47.72,114.85,66.16,2.71,1.24,5.36,2.62,8,3.93-2.27,4-4.74,8-6.76,12.15-1.87,3.85-3.25,7.94-5,12.4a12.19,12.19,0,0,1-3.55-.46c-50.63-22.65-99.19-48.8-141.74-84.93-21.2-18-40.05-38.16-54-62.43q-41.74-72.52.15-145.09c18-31.12,43.57-55.38,72-76.79,40.95-30.83,86.1-54.26,133-74.47,69.22-29.82,141-51.93,214-70.12,7-1.75,14.12-3.36,21.65-5.14,4.48,8.82,8.61,17,13.09,25.81C773,1159.29,756,1163.5,739,1168,729,1170.59,719.19,1173.62,709.28,1176.46Z"/><path class="cls-2" d="M714.73,630.56c.14,25.77-21.43,47.48-47,47.27-25.29-.21-46.29-21.32-46.5-46.75s20.61-46.71,46-47A46.87,46.87,0,0,1,714.73,630.56Z"/><path class="cls-2" d="M2184.29,1909.86a46.49,46.49,0,0,1,46.27,46.5c.05,26-21.26,47.39-47,47.08a47.21,47.21,0,0,1-46.36-46.77A46.68,46.68,0,0,1,2184.29,1909.86Z"/><path class="cls-2" d="M640.53,1661.27c-.14,25.83-21.72,47-47.45,46.64-25.35-.39-46.21-21.7-46.06-47.07.14-25.82,21.82-47.13,47.48-46.68A47.21,47.21,0,0,1,640.53,1661.27Z"/><path class="cls-2" d="M2230.56,893.83a46.67,46.67,0,1,1-46.18-46.59A46.53,46.53,0,0,1,2230.56,893.83Z"/><path class="cls-2" d="M652.53,1663l56.69,16.55q34.62,9.27,69.24,18.52c4.44,1.19,8.91,2.26,14.72,3.72l-13.17,26c-45.82-10.84-90.57-22.81-134.34-37.3C648.09,1680.78,650.31,1671.9,652.53,1663Z"/><path class="cls-1" d="M1281,1938.85l.09,1.7h-.33v-1.69Z"/><path class="cls-2" d="M1680.05,1760.84c20.51-1.61,41-3.16,61.52-4.86,5.28-.44,10.51-1.36,15.77-2.06l28.73,25.84c-19.09,2-38.15,4.27-57.26,6-15.82,1.46-31.7,2.37-47.55,3.52Q1680.66,1775.07,1680.05,1760.84Z"/><path class="cls-2" d="M1694.41,1703.26l-21,23.34c-3.48-12.89-3.86-26-2.85-40.34C1680.05,1691,1687.42,1696.84,1694.41,1703.26Z"/><path class="cls-2" d="M1671.46,1789.9l-32.74,2.21c2.66-7,8.13-10.82,12.22-15.6s8.63-9.11,13-13.64Q1667.69,1776.39,1671.46,1789.9Z"/><path class="cls-2" d="M1657.86,1745.78l-17.63,17.88,9.9-32,2.43-.22Q1655.2,1738.61,1657.86,1745.78Z"/></g></g></g></svg>