<svg xmlns="http://www.w3.org/2000/svg" width="2880" height="2880" viewBox="0 0 2880 2880"><defs><style>.cls-1{fill:none;}.cls-2{fill:#fff;}</style></defs><title>Asset 3</title><g id="Layer_2" data-name="Layer 2"><g id="Layer_1-2" data-name="Layer 1"><path class="cls-1" d="M683,1274.71a787.49,787.49,0,0,0-13.68,199.72,776.16,776.16,0,0,0,38.58,200.32c.53,1.57.88,3.21,1.32,4.81l1.83.49a781.74,781.74,0,0,1-.78-503.87l-1,.28C698.88,1208.77,689.57,1241.37,683,1274.71Z"/><path class="cls-1" d="M1706.26,678.93c63.66-43.31,129.69-82.49,201-112,38.22-15.83,77.43-28.36,118.58-34,27.26-3.76,54.46-4.19,81.42,2.17,54.64,12.87,88.46,47.63,104.69,100.5,7.58,24.7,10.1,50.14,10.09,75.92,0,42.86-7.2,84.71-17.22,127.16-5.15-.9-9.89-2-14.68-2.48-4.62-.47-9.31-.34-14-.47-1.59.48-3.15,1.06-4.77,1.42-44.12,9.87-61,63.75-29.38,97.25a38.44,38.44,0,0,1,2.42,3.1l24.93,14.44c-2.71,7.1-5.67,15.08-8.8,23q-15.21,38.5-32.33,76.08,4.47,8.08,8.75,16.28l47.83-114.76c25.62-2.12,45.28-14.24,53.9-39.72,9.19-27.17,0-49.57-21.76-67.44.64-3.23,1.13-6.16,1.81-9,8.81-37.7,14.93-75.77,16-114.55.86-31.82-1.37-63.29-11-93.84-16.3-51.87-49-87.87-102-103.38-34.26-10-69.16-9-104-3.55-40.35,6.31-78.9,18.91-116.56,34.39-65.87,27.08-127.32,62.33-186.76,101.25-13.2,8.65-26.23,17.56-39.27,26.37q8.67,2.65,17.26,5.5C1697,685.27,1701.63,682.08,1706.26,678.93Z"/><path class="cls-1" d="M2184.46,1178.36h0c22.78,6.4,45.36,13.31,67.69,20.89C2229.82,1191.67,2207.24,1184.76,2184.46,1178.36Z"/><path class="cls-1" d="M2252.15,1199.25q6.67,2.25,13.31,4.6Q2258.82,1201.51,2252.15,1199.25Z"/><path class="cls-1" d="M1165.22,2152.43l-4.45-1.73c1.39.64,2.78,1.29,4.18,1.92Z"/><path class="cls-1" d="M777.94,1028.25l.36.79q8-13.34,16.43-26.33C789.09,1011.2,783.56,1019.76,777.94,1028.25Z"/><path class="cls-1" d="M1137.76,2205.31c-58,36.8-118.09,69.62-182.75,93.43-36.68,13.51-74.19,23.5-113.33,26.48-28.57,2.17-56.57-.34-83.49-10.76-42.52-16.44-68.47-48.08-82.24-90.59-10.62-32.81-12.34-66.62-10.45-100.77,3.26-58.95,17.26-115.73,35.4-171.59,17.19-52.93,38.1-104.28,61.47-154.56a776.09,776.09,0,0,1-38.93-83.36c-26.27-7-52.19-14.63-77.77-23.1,2.42-9.71,4.64-18.59,6.86-27.48-.77-5.22-1.15-10.53-2.36-15.65-10.25-43.15-63.61-59.16-96-28.88-1.92,1.79-3.89,3.52-5.84,5.27-2.27,4-4.74,8-6.76,12.15-1.87,3.85-3.25,7.94-5,12.4a12.19,12.19,0,0,1-3.55-.46c-50.63-22.65-99.19-48.8-141.74-84.93-21.2-18-40.05-38.16-54-62.43q-41.74-72.52.15-145.09c18-31.12,43.57-55.38,72-76.79,40.95-30.83,86.1-54.26,133-74.47,58.49-25.19,118.8-44.88,180.15-61.35a776,776,0,0,1,38.07-82.37q-10.92-23.43-21.16-47.23C713.76,953.54,691.69,892.67,677,829.3c-9.47-41-15.58-82.39-14.86-124.59.08-4.92.59-9.83.88-14.3l28.83-6c1.1-.74,2.17-1.53,3.31-2.21,27.8-16.42,37.69-44.51,26.24-74.54-.46-1.22-.77-2.51-1.15-3.76l-18.2-22c1-1.29,2.52-3.42,4.28-5.27C730.88,550.73,761.65,538,796.48,534c45.28-5.14,88.84,3.71,131.7,17.13,55.83,17.48,108.07,43,158.72,72,36.86,21.06,72.54,43.78,107.32,67.82q8.43-2.9,17-5.61c-2.11-1.39-4.14-2.73-6.15-4.1-39.56-27.17-80.08-52.8-122.17-75.9-54.42-29.87-110.46-56-170.6-72.32-41.79-11.37-84.13-17.59-127.45-11.07-36.82,5.54-68.53,21-93.13,49.63a38.39,38.39,0,0,0-2.88,4.2c-35.83-8.15-64.11,5.22-75.17,34.44-11.51,30.41,1.42,58,36.17,76.68,0,2.1.09,4.41,0,6.71-2,45.26,3.76,89.71,13.48,133.8C677.51,892,699.43,954.06,725,1014.9c8.63,20.52,17.86,40.8,26.76,61.07l-23.35,50.15c-2.15.67-4.33,1.43-6.56,2-76.82,21.18-152.12,46.55-223.74,81.89-43.16,21.29-84.27,45.84-120.56,77.79-22.66,20-42.49,42.31-56.81,69.14-11.3,21.17-18,43.67-18.53,67.77-.72,30.57,8.4,58.4,24.17,84.25,14.91,24.44,34.31,45,56,63.43,31.9,27.13,67.28,49,104.51,67.88,16,8.13,32.23,15.77,48.23,23.56,5,50.22,61,73.87,100.61,38.52l92.75,27.79c8.18,17.5,16.34,35,24.64,52.72-1.42,3.19-2.89,6.52-4.39,9.83-28.41,62.49-53.6,126.2-71.88,192.46-14,50.85-24.21,102.38-25,155.39-.48,32.86,2.75,65.24,14.14,96.32,19.26,52.55,55.84,85.66,110.92,97.55,34.82,7.52,69.58,5.14,104.19-1.41,45.74-8.66,89.1-24.64,131.33-43.82,68.15-30.95,131.8-69.72,193.3-112.16,3.46-2.38,6.94-4.74,10.13-6.91q-8.58-2.67-17.08-5.53Q1168.78,2185.59,1137.76,2205.31Z"/><path class="cls-1" d="M2526.63,1304.3c-32.3-32.92-70.24-58.13-110.48-80-64.6-35.18-133.11-60.79-203.29-82.2-15.74-4.81-31.57-9.3-47.27-13.84q3.47,8.34,6.75,16.77c71.21,19.49,140.95,43.11,207.57,75.29,39.67,19.16,77.61,41.22,111.65,69.47,20.62,17.1,39.21,36.11,53.8,58.75,17.43,27,26.85,56.33,24.64,88.83-1.53,22.35-8.66,42.92-19.76,62.22-15.35,26.67-36.24,48.49-59.85,67.82-40,32.75-84.89,57.31-131.78,78.4-60.59,27.26-123.3,48.22-187.2,65.66q-3.28,8.36-6.76,16.62l7.78-2.16c72.88-20.39,144.33-44.7,212.48-77.93,45.67-22.27,89.16-48,127.16-82.17,23.23-20.87,43.4-44.26,57-72.64,20.28-42.17,20.86-84.67,1.36-127.3C2559.82,1342.52,2544.48,1322.49,2526.63,1304.3Z"/><path class="cls-1" d="M2153.07,1856c5.54,13.18,10.68,26.52,16,39.8.36.91.55,1.9.79,2.73l-25,14h0c-1.25,1.53-2.45,3.1-3.75,4.58-29.81,34.07-14,84.94,29.87,96.09,2.24.57,4.54.94,6.81,1.41.54,2.43,1.07,4.87,1.61,7.3-.54-2.43-1.07-4.87-1.61-7.3l28.55-2.67c2.28,9.75,4.91,20,7,30.33,8.4,40.91,13.36,82.17,10.56,124-1.82,27.08-7.21,53.38-19.29,78-20.71,42.18-54.76,66.73-100.47,75.68-36.7,7.19-73,3.11-108.91-5.12-56.18-12.85-108.51-35.69-159.32-62.28-49.66-26-97.06-55.45-142.94-87.24q-8.54,2.85-17.13,5.49c2.18,1.43,4.22,2.75,6.21,4.12,42,28.89,85.14,56,130.06,80.21,54.07,29.11,109.75,54.39,169.48,69.73,40,10.28,80.52,15.65,121.69,9,53.92-8.65,93.19-37.28,115.69-87.63,13.12-29.38,17.74-60.6,18.65-92.42,1.06-36.8-3.52-73.13-10.64-109.16-2.69-13.64-5.83-27.2-8.7-40.47,21.29-20.33,28.33-39.91,21.75-62.84-8-27.72-28.06-40.84-54.67-43.66-16.07-38.06-31.81-75.37-47.5-112.53q-4.29,8.27-8.77,16.4Q2141.51,1828.61,2153.07,1856Z"/><path class="cls-1" d="M775.67,1838.88q1.94-4.47,3.83-9c16.49,23.82,32,48.42,49.64,71.31q110.25,142.62,269.1,221.43a781.54,781.54,0,0,1-318-294.49c-.25.58-.49,1.17-.74,1.75Q777.6,1834.42,775.67,1838.88Z"/><path class="cls-2" d="M2873.45,1286.5a1362.52,1362.52,0,0,0-25-154.67c-37.33-170.58-102.92-329.53-198.92-475.31Q2376.42,241.8,1907.24,77.46c-83.15-29-168.56-49.15-255.74-61.82a1485.17,1485.17,0,0,0-148.12-14C1500.9,1.52,1498.46.56,1496,0H1388a80.4,80.4,0,0,1-8.49,1.63c-41.81,3.61-83.78,5.86-125.4,11-85.77,10.5-169.78,29.64-252.1,56-433.94,138.91-779.1,478.5-925,910A1418.64,1418.64,0,0,0,17.64,1223.8c-7,46.49-11.83,93.16-14.22,140.11C3,1371.31,1.18,1378.64,0,1386v122c4.37-.13,3.05,3.5,3.22,5.52,1,12,1.55,23.93,2.38,35.88a1378.9,1378.9,0,0,0,46.72,272.14q97.82,353.67,352.32,618.22,242.83,252,574.52,365a1407.81,1407.81,0,0,0,246,59.67c41.53,6.23,83.23,10.54,125.1,13.48,1.94.14,3.8,1.36,5.7,2.08h172c1.2-.7,2.36-1.89,3.62-2,27.51-2.64,55.09-4.76,82.56-7.8a1318.46,1318.46,0,0,0,188.29-35.2q369.06-96.41,642.85-362.06,279.75-272.18,384.65-648.83a1384.29,1384.29,0,0,0,41.47-211.44c3.14-26.77,4.45-53.76,6.71-80.63.17-2,1.21-4,1.85-6V1380C2877.88,1348.83,2876.58,1317.57,2873.45,1286.5Zm-304.33,206.64c-13.65,28.38-33.82,51.77-57,72.64-38,34.15-81.49,59.9-127.16,82.17-68.15,33.23-139.6,57.54-212.48,77.93l-7.78,2.16q-12.27,29.22-26.82,57.18c15.69,37.16,31.43,74.47,47.5,112.53,26.61,2.82,46.7,15.94,54.67,43.66,6.58,22.93-.46,42.51-21.75,62.84,2.87,13.27,6,26.83,8.7,40.47,7.12,36,11.7,72.36,10.64,109.16-.91,31.82-5.53,63-18.65,92.42-22.5,50.35-61.77,79-115.69,87.63-41.17,6.62-81.67,1.25-121.69-9-59.73-15.34-115.41-40.62-169.48-69.73-44.92-24.19-88-51.32-130.06-80.21-2-1.37-4-2.69-6.21-4.12a782.63,782.63,0,0,1-459.9-.69c-3.19,2.17-6.67,4.53-10.13,6.91-61.5,42.44-125.15,81.21-193.3,112.16-42.23,19.18-85.59,35.16-131.33,43.82-34.61,6.55-69.37,8.93-104.19,1.41-55.08-11.89-91.66-45-110.92-97.55-11.39-31.08-14.62-63.46-14.14-96.32.76-53,10.94-104.54,25-155.39,18.28-66.26,43.47-130,71.88-192.46,1.5-3.31,3-6.64,4.39-9.83-8.3-17.77-16.46-35.22-24.64-52.72l-92.75-27.79c-39.58,35.35-95.64,11.7-100.61-38.52-16-7.79-32.24-15.43-48.23-23.56-37.23-18.92-72.61-40.75-104.51-67.88-21.7-18.46-41.1-39-56-63.43-15.77-25.85-24.89-53.68-24.17-84.25.56-24.1,7.23-46.6,18.53-67.77,14.32-26.83,34.15-49.18,56.81-69.14,36.29-31.95,77.4-56.5,120.56-77.79,71.62-35.34,146.92-60.71,223.74-81.89,2.23-.61,4.41-1.37,6.56-2L751.77,1076c-8.9-20.27-18.13-40.55-26.76-61.07-25.58-60.84-47.5-122.9-61.75-187.49-9.72-44.09-15.52-88.54-13.48-133.8.11-2.3,0-4.61,0-6.71-34.75-18.66-47.68-46.27-36.17-76.68C624.69,581,653,567.63,688.8,575.78a38.39,38.39,0,0,1,2.88-4.2C716.28,543,748,527.49,784.81,522c43.32-6.52,85.66-.3,127.45,11.07,60.14,16.36,116.18,42.45,170.6,72.32,42.09,23.1,82.61,48.73,122.17,75.9,2,1.37,4,2.71,6.15,4.1a782.31,782.31,0,0,1,464-2.38c13-8.81,26.07-17.72,39.27-26.37,59.44-38.92,120.89-74.17,186.76-101.25,37.66-15.48,76.21-28.08,116.56-34.39,34.86-5.44,69.76-6.48,104,3.55,53,15.51,85.74,51.51,102,103.38,9.6,30.55,11.83,62,11,93.84-1,38.78-7.16,76.85-16,114.55-.68,2.88-1.17,5.81-1.81,9,21.78,17.87,30.95,40.27,21.76,67.44-8.62,25.48-28.28,37.6-53.9,39.72L2137,1067.23q15.55,29.76,28.56,61c15.7,4.54,31.53,9,47.27,13.84,70.18,21.41,138.69,47,203.29,82.2,40.24,21.92,78.18,47.13,110.48,80,17.85,18.19,33.19,38.22,43.85,61.54C2590,1408.47,2589.4,1451,2569.12,1493.14Z"/><path class="cls-2" d="M1726.86,2153.17a15.33,15.33,0,0,0,2.53,2.25c58.06,38.59,117.83,74.11,182.14,101.48,35.62,15.16,72.09,27.7,110.39,34.11,28.45,4.77,57,6.13,85.28-1.1,34.47-8.81,59-29.62,73.49-62.2,10-22.58,14.08-46.46,15.12-70.87,1.84-43.28-4.95-85.62-14.82-127.57-.57-2.43-1.11-4.86-1.65-7.3s-1.07-4.87-1.61-7.3c-2.27-.47-4.57-.84-6.81-1.41-43.88-11.15-59.68-62-29.87-96.09,1.3-1.48,2.5-3.05,3.75-4.58l-33.69-80.06A780.7,780.7,0,0,1,1726.86,2153.17Z"/><path class="cls-2" d="M2183.69,1677.92c87-24.73,171.59-55.57,248.74-104.07,29.18-18.34,56.31-39.38,77.7-66.75a191.73,191.73,0,0,0,20.24-32c15.45-30.82,15.2-62.19.66-93.39-12.21-26.21-31.2-47-52.8-65.71-27.36-23.66-57.85-42.67-89.83-59.34a947.31,947.31,0,0,0-122.94-52.85q-6.64-2.34-13.31-4.6c-22.33-7.58-44.91-14.49-67.69-20.89a782,782,0,0,1-.77,499.56Z"/><path class="cls-2" d="M829.14,1901.24c-17.69-22.89-33.15-47.49-49.64-71.31q-1.9,4.48-3.83,9c-9,20.84-18.19,41.59-26.46,62.71-20.91,53.42-37.91,108-48.25,164.58-6.14,33.57-9,67.38-6.68,101.44,1.5,22.36,6,44.19,15.66,64.68,16.3,34.5,43.56,54.74,80.77,61.79,33.06,6.27,65.67,2.42,98-5.17,49.62-11.64,96-31.63,141.24-54.67,44.89-22.89,87.7-49.26,129.49-77.32,1.93-1.29,3.67-2.86,5.5-4.3-1.4-.63-2.79-1.28-4.18-1.92q-32-12.66-62.53-28Q939.48,2043.87,829.14,1901.24Z"/><path class="cls-2" d="M691.8,735.26c1.64,39.41,10,77.74,20.24,115.67,16.17,59.86,38.48,117.49,63.79,174a26.51,26.51,0,0,0,2.11,3.32h0c5.62-8.49,11.15-17,16.79-25.54A780.73,780.73,0,0,1,1160.6,703.36c-14-9-27.84-18.21-41.82-27.21-8.71-5.6-17.47-11.12-26.33-16.47-50.53-30.5-102.92-57.33-158.89-76.59-37.61-12.94-75.91-22.48-116.14-21.68-13.72.27-27.22,1.72-40.45,5.4a108.86,108.86,0,0,0-56.68,37.11c.38,1.25.69,2.54,1.15,3.76,11.45,30,1.56,58.12-26.24,74.54-1.14.68-2.21,1.47-3.31,2.21C691.81,701.37,691.1,718.34,691.8,735.26Z"/><path class="cls-2" d="M2184.6,644.27c-15.89-52.54-52.64-81.29-107.32-84.68-35.08-2.17-69,3.88-102.4,13.73-51.72,15.25-100.44,37.54-147.05,64.25-34.07,19.53-67,41-100.43,61.72a19.17,19.17,0,0,0-1.6,1.12,780.64,780.64,0,0,1,384.37,319.52q15-35.71,29.94-71.43c1.53-3.66,2.92-7.37,4.37-11.06a38.44,38.44,0,0,0-2.42-3.1c-31.61-33.5-14.74-87.38,29.38-97.25,1.62-.36,3.18-.94,4.77-1.42,5-27.48,11.13-54.82,14.77-82.48C2195.77,716.66,2195.41,680,2184.6,644.27Z"/><path class="cls-2" d="M707.9,1674.75a776.16,776.16,0,0,1-38.58-200.32A787.49,787.49,0,0,1,683,1274.71c6.57-33.34,15.88-65.94,26.28-98.25-90.35,25.38-178.19,56.89-257.85,107.75-29.9,19.08-57.41,41.16-78.83,69.88-16.68,22.38-27.67,46.8-27.24,75.55.32,21.7,7.28,41.11,18.38,59.31,15.87,26,37.69,46.44,61.68,64.71,35.42,27,74.48,47.72,114.85,66.16,2.71,1.24,5.36,2.62,8,3.93,2-1.75,3.92-3.48,5.84-5.27,32.41-30.28,85.77-14.27,96,28.88,1.21,5.12,1.59,10.43,2.36,15.65l56.69,16.55C708.78,1678,708.43,1676.32,707.9,1674.75Z"/><path class="cls-2" d="M1160.6,703.36c-14-9-27.84-18.21-41.82-27.21,14,9,27.84,18.2,41.82,27.21Z"/><path class="cls-2" d="M775.83,1024.93a26.51,26.51,0,0,0,2.11,3.32h0A26.51,26.51,0,0,1,775.83,1024.93Z"/><path class="cls-2" d="M1741.57,1756c5.28-.44,10.51-1.36,15.77-2.06l-62.93-50.66-21,23.34a106.23,106.23,0,0,1-3.32-29.77,106.23,106.23,0,0,0,3.32,29.77q3.33,17.13,6.67,34.24v0C1700.56,1759.23,1721.07,1757.69,1741.57,1756Z"/><path class="cls-2" d="M1345.91,1825.8h0l.09.17c-1.7-8.44-4.68-16.42-8.86-26.12l-6.25,12.12h0l15.16,14.22-.14-.39Z"/><path class="cls-2" d="M1606.72,1775.8c.59-2.2,1.13-4.42,1.58-6.67C1607.85,1771.38,1607.31,1773.6,1606.72,1775.8Z"/><path class="cls-2" d="M1604.28,1783.85q1-3.09,1.93-6.22Q1605.31,1780.77,1604.28,1783.85Z"/><path class="cls-2" d="M1346,1826l1.32,2.53L1346,1826Z"/><path class="cls-2" d="M1280.74,1940.55v-1.69h.24l.09,1.7Z"/><path class="cls-2" d="M2016,1951l-20.84-18.94-1.21.74c4,9.25,8,18.5,12.38,28.73Z"/><path class="cls-2" d="M1670.59,686.05l4.57-3.09a782.31,782.31,0,0,0-464,2.38l2.3,1.52Q1441.86,618.36,1670.59,686.05Z"/><path class="cls-2" d="M1216.12,2170l-.21.15a782.63,782.63,0,0,0,459.9.69l-2.45-1.6Q1445.34,2237.7,1216.12,2170Z"/><path class="cls-2" d="M2158.52,1126.17l7.07,2q-13-31.2-28.56-61c-1,2.29-1.9,4.57-2.86,6.86C2142,1090.87,2150.17,1108.32,2158.52,1126.17Z"/><path class="cls-2" d="M2135.4,1779.47l2.43,5.75q14.53-27.95,26.82-57.18l-6.07,1.68C2150.65,1746.75,2143.06,1763,2135.4,1779.47Z"/><path class="cls-2" d="M1330.89,1812h0l6.25-12.12c4.18,9.7,7.16,17.68,8.86,26.12l1.32,2.54,15,40.17,2-.42-1.26-22h0l-5-50c-.22-1.18-.46-2.36-.7-3.53-.14-.69-.29-1.38-.44-2.07-1.59-7.54-3.21-15.07-1.53-22.92,1.82-3.87,3.21-8,5.53-11.56,9-13.78,20.81-25,33.8-35,16.55-12.85,32.78-26.09,49-39.34a67.52,67.52,0,0,0,9.75-10c7.19-8.93,9-17.16,7-31.43,55.28,15.16,111,20.85,168.24,16l25.47,17.35c-4.07,12.65-10.8,23.19-19.13,32.71-4.37,5-8.8,10.34-14.27,13.87-14.88,9.58-22.29,24.21-28.93,39.58l-2.78,6.41q-2.87,12.54-5.72,25.08l2.21,1,21.87-32,2.1,1.12c-.28,2.57-.69,5.11-1.19,7.61-.45,2.25-1,4.47-1.58,6.67l-.51,1.83q-.9,3.13-1.93,6.22l0,.07c-4,12-9.45,23.63-13.58,35.62-1,12.5-2.33,25-2.73,37.52-.23,7.24,1.27,14.47,7.86,20.71a71.16,71.16,0,0,1,6.29-42.15c9.42-1.63,13.9-9.23,17.29-17.12,5.9-13.7,10.95-27.76,16.28-41.7,1.65-4.33,3-8.76,4.57-13.14h0l9.9-32,2.43-.22q2.64,7.17,5.3,14.34h0q3,8.54,6.05,17.09,3.78,13.52,7.55,27c1.09,6.12,2.17,12.23,3.35,18.88,6.8-5.16,4.54-13,6.45-19.47h0q-.6-14.19-1.21-28.39v-.08q-3.35-17.11-6.67-34.24a106.23,106.23,0,0,1-3.32-29.77c0-1.73.08-3.47.16-5.24s.18-3.54.31-5.33c9.52,4.74,16.89,10.58,23.88,17l62.93,50.66h0l28.73,25.84a717,717,0,0,1,97.34,109.39A574.88,574.88,0,0,1,1949,2005.23c1,2.43,2,4.91,3.23,8.14-3.69,3.18-7.38,6.45-11.17,9.62a779,779,0,0,1-206.89,124.39c-3.06,1.24-6,2.67-9.08,4,.6.57,1.17,1.18,1.74,1.78a780.7,780.7,0,0,0,384.25-320.64c-.74-1.75-1.47-3.51-2.21-5.26h0c-18.93,30.16-38.84,59.63-61.35,87.27-3.12,3.84-6.33,7.6-9.29,11.15-20.11-27.33-39.87-54.17-59.9-81.37,4.07.65,8.12,1.68,12.2,1.84s8.27-.56,13.2-1l-68.13-83.6L1915.34,1736q-26.27-30.62-52.51-61.26a21.61,21.61,0,0,1-3.48-5.94q-22.35-57-44.58-114l-12.42-30.74h0c-14.15-32.65-27.83-65.5-42.55-97.89-29.24-64.33-62.55-126.43-104.15-183.8-42.59-58.72-92.76-109.75-152.68-150.94a38.88,38.88,0,0,1-3.67-3.26c-13.75-5.77-22.88-16.2-29.46-29.2a30.62,30.62,0,0,1-4.52-3.66q-34.11-40.17-68.11-80.45l-19.87-20.19c-8.13-6.87-16.09-14-24.41-20.58-15.7-12.51-32.68-22.93-51.61-29.89-32.66-12-65.26-10.51-97.74.77-22.46,7.81-42.94,19.45-62.75,32.48a295.35,295.35,0,0,1-28.45,16.3c-17,8.61-33.45,17.93-48.16,30.05-6.11,5-11.65,10.76-18.24,16.91,13.08,9.66,26.86,15.3,40.3,21.55,13.24,6.16,26.49,12.3,39.23,18.21,1.48,11.38,2.85,21.86,4.21,32.33q5.76,13.58,11.53,27.13l25.55,32.19c.8,14.29,1.75,31.4,2.71,48.52q1.92,19.8,3.85,39.59h0c5.91,50.33,15.2,99.94,31.49,148.07,25.38,75,67.93,138.93,125.24,193.26,4.59,4.36,9.15,8.75,13.9,12.92,16.75,14.69,32.82,30.27,51.52,39.48,3.69,10.22,6.79,18.94,10,27.63,2,5.3,4.41,10.45,6,15.86,2.34,8.2.75,15-5.72,21.72-24.12,24.84-47.54,50.35-71.4,75.45-4.31,4.53-9.46,8.28-14.22,12.39-2.71,2.77-5.11,6-8.18,8.25a168.84,168.84,0,0,0-28.82,27.91c-3.41,9.63-7.38,19.1-10.08,28.92-2.2,8-2.49,16.4.13,26.76,5.33-13.19,9.83-24.27,19.74-31.83l2-1.66.76.54-1.47,2.23c-1.13,3.43-2.12,6.92-3.41,10.29-7.48,19.5-15.71,38.74-17,60.06-.77,13-.13,25.63,5.82,39.23,2.1-13.69,4-25.71,5.68-37l10.6-4.22c6.92-19.23,13.77-38.23,20.61-57.22h0Q1323.7,1825.64,1330.89,1812Zm664.29,120.13L2016,1951l-9.67,10.53c-4.41-10.23-8.4-19.48-12.38-28.73Z"/><path class="cls-2" d="M1345.91,1825.79h0l.09.17h0Z"/><path class="cls-2" d="M2225,1427a777.21,777.21,0,0,0-40.58-248.64l-6.5-1.82c.57,2.24,1,4.52,1.72,6.71a777.73,777.73,0,0,1,38.91,267.26,759.12,759.12,0,0,1-24.43,172.54c-5,18.94-10.79,37.67-16.22,56.49,1.92-.53,3.83-1.08,5.75-1.62A777.29,777.29,0,0,0,2225,1427Z"/><path class="cls-2" d="M1155.86,2148.54q-29.58-11.92-57.62-25.87,30.52,15.33,62.53,28C1159.15,2150,1157.51,2149.21,1155.86,2148.54Z"/><path class="cls-2" d="M1160.6,703.36a780.73,780.73,0,0,0-365.87,299.35q3.66-5.52,7.42-11,134.19-194.49,353-283.88c2.42-1,4.72-2.29,7.08-3.45h0Z"/><path class="cls-2" d="M1725.8,700.41c-1.32,1-2.55,2.11-3.85,3.14,2.72,1.22,5.41,2.54,8.18,3.65Q1955,798.1,2090,999.57c5.92,8.8,11.7,17.7,17.55,26.56.86-2.07,1.73-4.13,2.59-6.2A780.64,780.64,0,0,0,1725.8,700.41Z"/><path class="cls-2" d="M1162.19,704.39h0c19.94,13.87,40.18,27.31,59.76,41.68,67.48,49.51,131.44,103.31,193.18,159.8a81,81,0,0,0,6.95,5.07l-44.74,43.77,19.87,20.19c14.84-14.3,29.69-28.6,45.22-43.58,44.24,41.37,86.6,83.85,129.47,129.09l-102.06-1.4c6.58,13,15.71,23.43,29.46,29.2,15.63.12,31.27,0,46.9.41,17.62.43,35.24,1.27,53.93,2A3450.9,3450.9,0,0,1,1873.85,1427c-1.88,2.79-3.62,5.55-5.54,8.17q-30.37,41.46-60.83,82.88c-1.56,2.12-3.41,4-5.13,6h0l12.42,30.74q30-39.84,60.07-79.69c5.39-7.18,10.53-14.54,16.64-23,58.14,83.43,111.75,168.69,160.22,258.8-16.31,3.22-31.14,6.41-46.07,9-28.49,5-57.05,9.65-85.56,14.49a32.5,32.5,0,0,0-4.72,1.54l20.28,25.59c17-3.06,34-6,51-9.2,24.18-4.56,48.33-9.34,72.49-14,1.93-.37,3.9-.52,6.26-.82,1.41,2.41,2.86,4.58,4,6.9q18,36.73,35.85,73.52c1.44,3,2.45,6.17,3.67,9.26h0c.74,1.76,1.47,3.52,2.21,5.27q9.33-15.22,17.95-30.91c-42.32-91.73-92.11-179.48-146.68-264.64-133-207.54-288.2-397.13-462.85-570.94q-92.86-92.43-194-175.69c-42.58-34.82-86.15-68.21-131.27-99.4q-17,5.84-33.62,12.41Z"/><path class="cls-2" d="M2111.11,1832.53h0c-.74-1.75-1.47-3.51-2.21-5.27h0C2109.64,1829,2110.37,1830.78,2111.11,1832.53Z"/><path class="cls-2" d="M1814.77,1554.84l-12.42-30.74h0Z"/><path class="cls-2" d="M1162.19,704.39h0l-1.59-1h0Z"/><path class="cls-2" d="M1428.2,1978.83c1.42-1.3,2.68-2.78,4.6-4.79l-20.75-19c-5.19,4.67-9.63,8.66-14,12.67-56.13,50.76-114.12,99.3-175,144.23-18.92,13.95-38.47,27-57.74,40.51q16.62,6.46,33.61,12.19C1279.62,2108.25,1355.31,2045.33,1428.2,1978.83Z"/><path class="cls-2" d="M789.75,1806.17c10.86-22.76,22-45.42,33.21-68.63,140.86,29.64,282.59,46.38,426.14,52.61-8.65-9.48-17.31-19-25.65-28.08-130-8.75-258.35-24.07-386.24-50.84,45.31-84.77,95.31-165.25,148.86-243.87l-17.33-24.3c-2.3,3-4.19,5.24-5.83,7.64C905.56,1534.6,852.26,1621,805,1711c-14.88,28.37-29.17,57-42.65,86q8.58,15.84,17.87,31.23C783.35,1820.82,786.31,1813.38,789.75,1806.17Z"/><path class="cls-2" d="M1311.93,1775.3c3.07-2.29,5.47-5.48,8.18-8.25l-33.51-1.68a3457.47,3457.47,0,0,1-273.36-336c1.4-2.31,2.61-4.59,4.09-6.68q72.2-101.91,152-198c1.27-1.53,2.7-2.93,4-4.4h0q-1.92-19.8-3.85-39.59c-14.15,16.8-28.53,33.41-42.41,50.43q-65.68,80.55-126.14,165.11c-1.7,2.38-3.56,4.64-5.75,7.47-58.05-83.46-111.68-168.58-160-258.57,19.52-3.85,37.59-7.94,55.85-10.9,46.31-7.51,92.62-15.09,139.09-21.54,32.95-4.57,66.16-7.33,99.26-11,4-.43,7.89-1.16,11.84-1.76l-11.52-27.13c-33.38,3.72-66.85,6.73-100.12,11.31-45.76,6.3-91.41,13.48-137,20.87-21.63,3.5-43,8.4-64.56,12.6-2.22.43-4.52.42-8.16.74L778.3,1029q-9.21,15.45-17.73,31.37c40.64,87.24,88.12,170.82,139.69,252.17,87.89,138.61,186.77,269,294.46,392.8,28.85,33.15,58.9,65.25,88.39,97.83A168.84,168.84,0,0,1,1311.93,1775.3Z"/><path class="cls-2" d="M1173.36,1220.27h0q-1.92-19.8-3.85-39.59,1.92,19.8,3.85,39.59Z"/><polygon class="cls-2" points="1345.91 1825.79 1346.05 1826.18 1345.91 1825.8 1345.91 1825.79"/><path class="cls-2" d="M1572.89,1795.43c-42,45.09-84.3,87.53-128.55,129.26-8.64-8.18-17.16-16-25.46-24.14-16.22-15.81-32.31-31.75-48.49-47.6-2.37-2.32-4.92-4.45-7.38-6.67h0l1.26,22-2,.42-15-40.17L1346,1826c0,.07,0,.14,0,.21L1330.89,1812q-7.19,13.68-14.38,27.37h0c2.42,2.28,4.92,4.46,7.24,6.84,91.87,94.44,188.66,183.42,293.26,263.68q37.37,28.67,75.93,55.5,17.13-5.7,33.92-12.18c-.57-.6-1.14-1.21-1.74-1.78a96.16,96.16,0,0,1-8.65-4.72c-87.91-60.07-169.65-127.8-248.16-199.55-.73-.67-1.32-1.49-2.34-2.65,1.71-1.9,3.37-3.9,5.2-5.74q56-56.28,112.15-112.53c2.33-2.33,4.89-4.44,7.35-6.66,4.13-12,9.54-23.6,13.58-35.62l0-.07q1-3.09,1.93-6.22l.51-1.83c.59-2.2,1.13-4.42,1.58-6.67.5-2.5.91-5,1.19-7.61l-2.1-1.12-21.87,32-2.21-1q2.87-12.54,5.72-25.08c-9.31.19-18.62.29-27.93.59q-102.86,3.43-205.74.81c-1.68,7.85-.06,15.38,1.53,22.92.15.69.3,1.38.44,2.07.24,1.17.48,2.35.7,3.53"/><path class="cls-2" d="M1606.21,1777.63l.51-1.83Z"/><path class="cls-2" d="M1364.27,1868.25l-1.26-22h0Z"/><path class="cls-2" d="M1330.89,1812h0q-7.19,13.68-14.38,27.37h0Q1323.7,1825.64,1330.89,1812Z"/><path class="cls-2" d="M1604.25,1783.92l0-.07Z"/><path class="cls-2" d="M1356.89,1790.68c.15.69.3,1.38.44,2.07C1357.19,1792.06,1357,1791.37,1356.89,1790.68Z"/><path class="cls-2" d="M1346.05,1826.18c0-.07,0-.14,0-.21l-.09-.17Z"/><path class="cls-2" d="M2177.94,1679.54l-82.11,22.38,13.15,25.29c7.78-1.85,14.89-3.46,21.95-5.22q20.31-5.07,40.48-10.57,6.51-16.58,12.28-33.5C2181.77,1678.46,2179.86,1679,2177.94,1679.54Z"/><path class="cls-2" d="M2107.05,1128.07l-13.32,25.85c2.8.86,4.93,1.58,7.1,2.16q38.57,10.25,77.13,20.46l6.5,1.82q-5.68-16.87-12.12-33.38c-1.08-.3-2.16-.61-3.25-.9C2148.62,1138.51,2128,1133.46,2107.05,1128.07Z"/><path class="cls-2" d="M1692.42,688.46c-82.79,57.49-160.25,121.65-234.65,189.61-1.16,1.06-2.15,2.3-3.72,4l20.79,19c4-3.57,7.23-6.43,10.43-9.33,60.7-55.12,123.6-107.57,189.93-155.82,15.32-11.15,31.15-21.58,46.75-32.34,1.3-1,2.53-2.15,3.85-3.14Q1709.29,694.07,1692.42,688.46Z"/><path class="cls-2" d="M2107.58,1026.13a40.2,40.2,0,0,1-1.61,4.71q-20.32,42.26-40.77,84.44a17.2,17.2,0,0,1-2.53,3c-140.1-29.5-281.52-46.12-426.54-54.37,10.11,11.2,18.5,20.47,27.17,30.06,129.37,8.7,258,24,386.32,50.85-45.23,84.9-95.33,165.26-148.77,243.9,5.81,8.2,11.32,16,17.36,24.51,2.64-3.64,4.68-6.17,6.43-8.89,31.1-48.44,63.17-96.31,93-145.51,40.83-67.27,78.12-136.39,110.61-207.92q-8.7-15.73-18.11-31C2109.31,1022,2108.44,1024.06,2107.58,1026.13Z"/><path class="cls-2" d="M739,1168c17-4.47,34-8.68,52.12-13.29-4.48-8.84-8.61-17-13.09-25.81-7.53,1.79-14.61,3.39-21.65,5.14q-17,4.23-33.88,8.77-6.48,16.52-12.23,33.4C719.84,1173.41,729.37,1170.51,739,1168Z"/><path class="cls-2" d="M780,1727.79l13.17-26c-5.81-1.47-10.28-2.54-14.72-3.73q-33.71-9-67.41-18,5.82,17,12.39,33.54Q751.46,1721.07,780,1727.79Z"/><path class="cls-2" d="M1280.74,1938.86v1.69h.33l-.09-1.7Z"/><path class="cls-2" d="M1786.07,1779.76l-28.73-25.84h0c-5.26.7-10.49,1.62-15.77,2.06-20.5,1.71-41,3.25-61.52,4.86v.08q.6,14.19,1.21,28.39h0c15.85-1.15,31.73-2.06,47.55-3.52C1747.92,1784,1767,1781.79,1786.07,1779.76Z"/><path class="cls-2" d="M1680.05,1760.92q.6,14.19,1.21,28.39h0Q1680.66,1775.12,1680.05,1760.92Z"/><path class="cls-2" d="M1786.07,1779.76l-28.73-25.84h0Z"/><path class="cls-2" d="M1673.38,1726.6l21-23.34c-7-6.42-14.36-12.26-23.88-17-.13,1.79-.23,3.57-.31,5.33s-.13,3.51-.16,5.24A106.23,106.23,0,0,0,1673.38,1726.6Z"/><path class="cls-2" d="M1670.06,1696.83c0-1.73.08-3.47.16-5.24C1670.14,1693.36,1670.09,1695.1,1670.06,1696.83Z"/><path class="cls-2" d="M1650.94,1776.51c-4.09,4.78-9.56,8.59-12.22,15.6l32.74-2.21q-3.78-13.51-7.55-27C1659.57,1767.4,1655,1771.75,1650.94,1776.51Z"/><path class="cls-2" d="M1657.86,1745.78q-2.65-7.17-5.3-14.34l-2.43.22-9.9,32,17.63-17.88Z"/><path class="cls-2" d="M1657.86,1745.78h0q-2.65-7.17-5.3-14.34,2.64,7.17,5.3,14.34Z"/><path class="cls-2" d="M1640.23,1763.66h0l9.9-32Z"/></g></g></svg>